<svg width="475" height="563" viewBox="0 0 475 563" fill="none" xmlns="http://www.w3.org/2000/svg">
<path d="M95 0H323C435 6 479.166 100 474 185C468.834 270 414.5 322 352.5 356C290.5 390 210 398 110 402C110 402 139.5 383 150 371.5C160.5 360 170.5 340 174 328C177.5 316 181 301.5 181 301.5L190 288C224 295 237 289 245 289C253 289 269 288 269 288L296 284L317 278L332 272L348 263L361 253L374 240L382 229L390 215L395 203L400 185L402 170V152L399 135L394 123L388 113L379 103L365 93L348 85L331 80L318 78L163 77C134 77 95 60 95 0Z" fill="url(#paint0_linear_4_109)"/>
<g filter="url(#filter0_d_4_109)">
<path d="M304 231C304 231 286.5 231 275 231C263.5 231 239.5 234 226 241C212.5 248 196 259 184 282C172 305 158.5 346 142.5 367.5C126.5 389 111.043 401.381 110 402C112.104 400.75 112.5 400.5 113.5 400C114.5 399.5 140.5 385.5 150 380.5C159.5 375.5 170.5 369 178 365C185.5 361 198 351 203 346C208 341 218.5 330 224.5 321.5C230.5 313 246 288 246 288L255 273C255 273 261.5 264 265 259.5C268.5 255 273 250 281 244C289 238 304 231 304 231Z" fill="url(#paint1_linear_4_109)"/>
</g>
<path d="M273.5 187C256.5 191.5 246 196 242 197C214 204 198.194 213.206 191 219.5C183.806 225.794 177.5 230.5 170 240C148.5 267.233 136.458 292.345 127.5 322C116 360.069 103 370 103 370V310.5V297.5L105.25 294L106 288L107 281.5L109 272L111 262.5L113 253L116 245.5L119 238L125 228L132 219.5L143 210.5L148.5 207L154 204L159 201.5L166.5 198.5L179.5 194.5L191 192.5L203 191.5C212.726 191.222 257.5 189 273.5 187Z" fill="url(#paint2_linear_4_109)"/>
<path d="M191 125C218 124 336 125 336 125C326.784 150.195 315.072 174 292 182.5C268.928 191 234 191.5 217 191.5C200 191.5 183 193 168 198.5C153 204 133 215 121 237C109 259 108.282 280.65 103 313C103 313 101.5 239 103 215C104.438 191.984 112 160 129.5 146C147 132 164 126 191 125Z" fill="url(#paint3_linear_4_109)"/>
<path d="M358 88L365 89L372 93V95L376 96L375 98L371 97L358 89V88Z" fill="#00CCF2"/>
<defs>
<filter id="filter0_d_4_109" x="0" y="172" width="414" height="391" filterUnits="userSpaceOnUse" color-interpolation-filters="sRGB">
<feFlood flood-opacity="0" result="BackgroundImageFix"/>
<feColorMatrix in="SourceAlpha" type="matrix" values="0 0 0 0 0 0 0 0 0 0 0 0 0 0 0 0 0 0 127 0" result="hardAlpha"/>
<feMorphology radius="10" operator="dilate" in="SourceAlpha" result="effect1_dropShadow_4_109"/>
<feOffset dy="51"/>
<feGaussianBlur stdDeviation="50"/>
<feComposite in2="hardAlpha" operator="out"/>
<feColorMatrix type="matrix" values="0 0 0 0 0.00321745 0 0 0 0 0.0125647 0 0 0 0 0.115385 0 0 0 1 0"/>
<feBlend mode="normal" in2="BackgroundImageFix" result="effect1_dropShadow_4_109"/>
<feBlend mode="normal" in="SourceGraphic" in2="effect1_dropShadow_4_109" result="shape"/>
</filter>
<linearGradient id="paint0_linear_4_109" x1="79" y1="380.5" x2="577.5" y2="119.5" gradientUnits="userSpaceOnUse">
<stop stop-color="#0022FF"/>
<stop offset="1" stop-color="#00FFD5"/>
</linearGradient>
<linearGradient id="paint1_linear_4_109" x1="21.5" y1="339" x2="397" y2="208" gradientUnits="userSpaceOnUse">
<stop stop-color="#0C00F6"/>
<stop offset="1" stop-color="#00FFEA"/>
</linearGradient>
<linearGradient id="paint2_linear_4_109" x1="274" y1="129" x2="55" y2="379" gradientUnits="userSpaceOnUse">
<stop stop-color="#003B90"/>
<stop offset="1" stop-color="#0A369A"/>
</linearGradient>
<linearGradient id="paint3_linear_4_109" x1="95.5" y1="313" x2="341.5" y2="122.5" gradientUnits="userSpaceOnUse">
<stop stop-color="#0478FF"/>
<stop offset="1" stop-color="#00D1FE"/>
</linearGradient>
</defs>
</svg>
