<svg width="380" height="402" viewBox="0 0 380 402" fill="none" xmlns="http://www.w3.org/2000/svg">
<path d="M0 0H228C340 6 384.166 100 379 185C373.834 270 319.5 322 257.5 356C195.5 390 115 398 15 402C15 402 44.5 383 55 371.5C65.5 360 75.5 340 79 328C82.5 316 86 301.5 86 301.5L95 288C129 295 142 289 150 289C158 289 174 288 174 288L201 284L222 278L237 272L253 263L266 253L279 240L287 229L295 215L300 203L305 185L307 170V152L304 135L299 123L293 113L284 103L270 93L253 85L236 80L223 78L68 77C39 77 0 60 0 0Z" fill="url(#paint0_linear_4_109)"/>
<path d="M0 0H228C340 6 384.166 100 379 185C373.834 270 319.5 322 257.5 356C195.5 390 115 398 15 402C15 402 44.5 383 55 371.5C65.5 360 75.5 340 79 328C82.5 316 86 301.5 86 301.5L95 288C129 295 142 289 150 289C158 289 174 288 174 288L201 284L222 278L237 272L253 263L266 253L279 240L287 229L295 215L300 203L305 185L307 170V152L304 135L299 123L293 113L284 103L270 93L253 85L236 80L223 78L68 77C39 77 0 60 0 0Z" fill="url(#paint1_linear_4_109)"/>
<path d="M209 231C209 231 191.5 231 180 231C168.5 231 144.5 234 131 241C117.5 248 101 259 89 282C77 305 63.5 346 47.5 367.5C31.5 389 16.0427 401.381 15 402C17.1042 400.75 17.5 400.5 18.5 400C19.5 399.5 45.5 385.5 55 380.5C64.5 375.5 75.5 369 83 365C90.5 361 103 351 108 346C113 341 123.5 330 129.5 321.5C135.5 313 151 288 151 288L160 273C160 273 166.5 264 170 259.5C173.5 255 178 250 186 244C194 238 209 231 209 231Z" fill="url(#paint2_linear_4_109)"/>
<path d="M178.5 187C161.5 191.5 151 196 147 197C119 204 103.194 213.206 96 219.5C88.8063 225.794 82.5 230.5 75 240C53.5 267.233 41.4583 292.345 32.5 322C21 360.069 8 370 8 370V310.5V297.5L10.25 294L11 288L12 281.5L14 272L16 262.5L18 253L21 245.5L24 238L30 228L37 219.5L48 210.5L53.5 207L59 204L64 201.5L71.5 198.5L84.5 194.5L96 192.5L108 191.5C117.726 191.222 162.5 189 178.5 187Z" fill="url(#paint3_linear_4_109)"/>
<path d="M96 125C123 124 241 125 241 125C231.784 150.195 220.072 174 197 182.5C173.928 191 139 191.5 122 191.5C105 191.5 88 193 73 198.5C58 204 38 215 26 237C14.0001 259 13.2817 280.65 8.00002 313C8.00002 313 6.50007 239 8.00002 215C9.43846 191.984 17 160 34.5 146C52 132 69 126 96 125Z" fill="url(#paint4_linear_4_109)"/>
<defs>
<linearGradient id="paint0_linear_4_109" x1="-1.36611e-06" y1="402" x2="387" y2="106.5" gradientUnits="userSpaceOnUse">
<stop stop-color="#0022FF"/>
<stop offset="0.913462" stop-color="#00FFD5"/>
</linearGradient>
<linearGradient id="paint1_linear_4_109" x1="-22" y1="424" x2="134" y2="263" gradientUnits="userSpaceOnUse">
<stop stop-color="#0B054F"/>
<stop offset="1" stop-color="#0800FF" stop-opacity="0"/>
</linearGradient>
<linearGradient id="paint2_linear_4_109" x1="15" y1="379.5" x2="232" y2="210" gradientUnits="userSpaceOnUse">
<stop stop-color="#0E57F4"/>
<stop offset="1" stop-color="#00FFEA"/>
</linearGradient>
<linearGradient id="paint3_linear_4_109" x1="179" y1="129" x2="-40" y2="379" gradientUnits="userSpaceOnUse">
<stop stop-color="#003B90"/>
<stop offset="1" stop-color="#0A369A"/>
</linearGradient>
<linearGradient id="paint4_linear_4_109" x1="0.499969" y1="313" x2="246.5" y2="122.5" gradientUnits="userSpaceOnUse">
<stop stop-color="#0478FF"/>
<stop offset="1" stop-color="#00D1FE"/>
</linearGradient>
</defs>
</svg>
